<?xml version="1.0" encoding="utf-8"?>
<!-- Generator: Adobe Illustrator 22.1.0, SVG Export Plug-In . SVG Version: 6.00 Build 0)  -->
<svg version="1.1" id="Layer_1" xmlns="http://www.w3.org/2000/svg" xmlns:xlink="http://www.w3.org/1999/xlink" x="0px" y="0px"
	 viewBox="0 0 47.6 47.5" style="enable-background:new 0 0 47.6 47.5;" xml:space="preserve">
<style type="text/css">
	.st0{fill:#25323C;}
	.st1{fill:#32415B;}
	.st2{fill:#336792;}
	.st3{fill:#84B556;}
	.st4{fill:#BCBCBC;}
	.st5{fill:#FFFFFF;}
</style>
<path class="st0" d="M23.8,0C10.7,0,0.1,10.6,0.1,23.8s10.6,23.7,23.7,23.7c2.5,0,5-0.4,7.2-1.1c-3.9-1.9-6.6-5.8-6.6-10.4
	c0-1.1,0.2-2.1,0.4-3.1c0.1-0.4,0.2-0.8,0.4-1.2c0.2-0.4,0.3-0.8,0.5-1.1c0.6-1.2,1.4-2.2,2.4-3.1c0.4-0.4,0.9-0.7,1.3-1.1
	c0.7-0.5,1.4-0.9,2.2-1.2c0.7-0.3,1.3-0.5,2.1-0.6s1.4-0.2,2.2-0.2c0,0,0,0,0,0c0.7,0,1.4,0.1,2.1,0.2c1.3,0.2,2.5,0.7,3.6,1.3l0,0
	c0.4,0.2,0.7,0.5,1.1,0.7c0.4,0.3,0.7,0.6,1.1,0.9v0l0,0v0c1.1,1,1.9,2.2,2.6,3.5c0.7-2.3,1.1-4.7,1.1-7.2C47.6,10.6,36.9,0,23.8,0z
	"/>
<path class="st1" d="M22.6,22c-0.5,0-0.9,0.2-1.1,0.5c-0.3,0.3-0.4,0.8-0.4,1.5c0,1.3,0.5,2,1.6,2c1,0,1.5-0.7,1.5-2
	C24.1,22.6,23.6,22,22.6,22z"/>
<path class="st1" d="M38.8,16.9H9c-1.6,0-2.9,1.3-2.9,2.9v7.7c0,1.6,1.3,2.9,2.9,2.9h16.9c0.6-1.2,1.4-2.2,2.4-3.1h-0.7v-6.9h2.1
	v1.1h0c0.2-0.4,0.5-0.7,0.9-0.9c0.4-0.2,0.8-0.3,1.3-0.3c0.9,0,1.6,0.4,1.9,1.3c0.5-0.9,1.3-1.3,2.2-1.3c1.5,0,2.2,0.9,2.2,2.8v1.4
	c1.3,0.2,2.5,0.7,3.6,1.3v-6C41.8,18.2,40.5,16.9,38.8,16.9z M11.2,27.3c-0.2,0.2-0.5,0.3-0.9,0.3c-0.3,0-0.6-0.1-0.8-0.3
	c-0.2-0.2-0.3-0.5-0.3-0.8c0-0.3,0.1-0.6,0.3-0.8c0.2-0.2,0.5-0.3,0.9-0.3c0.4,0,0.6,0.1,0.9,0.3c0.2,0.2,0.3,0.5,0.3,0.8
	C11.5,26.8,11.4,27.1,11.2,27.3z M18,22.5c-0.4-0.3-0.9-0.5-1.4-0.5c-0.6,0-1.1,0.2-1.4,0.5c-0.3,0.4-0.5,0.9-0.5,1.5
	c0,0.6,0.2,1.1,0.5,1.4c0.3,0.3,0.8,0.5,1.4,0.5c0.5,0,1-0.2,1.5-0.5v1.7c-0.5,0.3-1.1,0.4-2,0.4c-1,0-1.9-0.3-2.5-1
	c-0.6-0.6-1-1.5-1-2.5c0-1.2,0.3-2.1,1-2.8c0.7-0.7,1.6-1,2.7-1c0.8,0,1.4,0.1,1.7,0.3C18,20.7,18,22.5,18,22.5z M25.3,26.6
	c-0.6,0.7-1.5,1-2.7,1c-1.1,0-2-0.3-2.6-1s-1-1.5-1-2.6c0-1.1,0.3-2,1-2.7c0.7-0.6,1.6-1,2.7-1c1.1,0,2,0.3,2.6,1
	c0.6,0.6,0.9,1.5,0.9,2.6C26.2,25,25.9,25.9,25.3,26.6z"/>
<path class="st1" d="M35.1,22c-0.3,0-0.6,0.2-0.8,0.5c-0.2,0.3-0.3,0.7-0.3,1.1v1c0.7-0.1,1.4-0.2,2.2-0.2c0,0,0,0,0,0v-0.9
	C36.1,22.5,35.8,22,35.1,22z"/>
<path class="st1" d="M30.8,22c-0.4,0-0.6,0.1-0.8,0.4c-0.2,0.3-0.3,0.7-0.3,1.2v2.8c0.7-0.5,1.4-0.9,2.2-1.2v-1.7
	C31.8,22.5,31.5,22,30.8,22z"/>
<path class="st2" d="M39.1,14.6H8.8c-2.7,0-4.9,2.2-4.9,4.9V28c0,2.7,2.2,4.9,4.9,4.9H25c0.1-0.4,0.2-0.8,0.4-1.2
	c0.2-0.4,0.3-0.8,0.5-1.1H9c-1.6,0-2.9-1.3-2.9-2.9v-7.7c0-1.6,1.3-2.9,2.9-2.9h29.8c1.6,0,2.9,1.3,2.9,2.9v6
	c0.4,0.2,0.7,0.5,1.1,0.7c0.4,0.3,0.7,0.6,1.1,0.9v-8C43.9,16.8,41.8,14.6,39.1,14.6z"/>
<circle class="st3" cx="36.1" cy="36" r="9.6"/>
<path class="st4" d="M10.3,25.4c-0.3,0-0.6,0.1-0.9,0.3c-0.2,0.2-0.3,0.5-0.3,0.8c0,0.3,0.1,0.6,0.3,0.8c0.2,0.2,0.5,0.3,0.8,0.3
	c0.4,0,0.7-0.1,0.9-0.3c0.2-0.2,0.3-0.5,0.3-0.8c0-0.3-0.1-0.6-0.3-0.8S10.7,25.4,10.3,25.4z"/>
<path class="st4" d="M13.6,21.4c-0.7,0.7-1,1.6-1,2.8c0,1,0.3,1.8,1,2.5c0.6,0.6,1.5,1,2.5,1c0.9,0,1.6-0.1,2-0.4v-1.7
	c-0.5,0.3-1,0.5-1.5,0.5c-0.6,0-1-0.2-1.4-0.5c-0.3-0.3-0.5-0.8-0.5-1.4c0-0.6,0.2-1.1,0.5-1.5S16,22,16.6,22c0.5,0,1,0.2,1.4,0.5
	v-1.8c-0.4-0.2-0.9-0.3-1.7-0.3C15.2,20.4,14.3,20.7,13.6,21.4z"/>
<path class="st4" d="M22.7,20.4c-1.1,0-2,0.3-2.7,1c-0.7,0.6-1,1.5-1,2.7c0,1.1,0.3,2,1,2.6c0.6,0.6,1.5,1,2.6,1c1.1,0,2-0.3,2.7-1
	c0.7-0.7,1-1.6,1-2.7c0-1.1-0.3-1.9-0.9-2.6C24.7,20.7,23.8,20.4,22.7,20.4z M22.6,26c-1,0-1.6-0.7-1.6-2c0-0.6,0.1-1.1,0.4-1.5
	c0.3-0.3,0.6-0.5,1.1-0.5c1,0,1.5,0.6,1.5,1.9C24.1,25.3,23.6,26,22.6,26z"/>
<path class="st4" d="M29.6,23.6c0-0.5,0.1-0.9,0.3-1.2c0.2-0.3,0.5-0.4,0.8-0.4c0.7,0,1,0.5,1,1.5v1.7c0.7-0.3,1.3-0.5,2.1-0.6v-1
	c0-0.4,0.1-0.8,0.3-1.1c0.2-0.3,0.5-0.5,0.8-0.5c0.7,0,1.1,0.5,1.1,1.5v0.9c0.7,0,1.4,0.1,2.1,0.2v-1.4c0-1.8-0.7-2.8-2.2-2.8
	c-1,0-1.7,0.4-2.2,1.3c-0.3-0.9-1-1.3-1.9-1.3c-0.5,0-0.9,0.1-1.3,0.3c-0.4,0.2-0.7,0.5-0.9,0.9h0v-1.1h-2.1v6.9h0.7
	c0.4-0.4,0.9-0.7,1.3-1.1V23.6z"/>
<g>
	<path class="st5" d="M33.7,39.2c0.4,0.4,1,0.7,1.6,0.8v-4.4c-0.6-0.1-1.1-0.3-1.5-0.5c-0.4-0.2-0.8-0.4-1.1-0.6
		c-0.3-0.2-0.5-0.5-0.6-0.9c-0.1-0.3-0.2-0.8-0.2-1.2c0-0.5,0.1-0.9,0.3-1.4c0.2-0.4,0.4-0.8,0.7-1.1c0.3-0.3,0.7-0.5,1.1-0.7
		c0.4-0.2,0.9-0.3,1.3-0.3V28h0.9v1.1c0.9,0.1,1.6,0.4,2.1,1c0.5,0.5,0.9,1.3,1.1,2.3h-1.4c-0.2-1.1-0.8-1.7-1.8-1.9v4.1l1,0.3
		c0.2,0.1,0.5,0.2,0.8,0.3c0.3,0.1,0.6,0.3,0.9,0.6s0.5,0.5,0.7,0.9c0.2,0.4,0.3,0.8,0.3,1.3c0,0.5-0.1,1-0.3,1.4
		c-0.2,0.4-0.4,0.8-0.8,1.1s-0.7,0.5-1.1,0.7c-0.4,0.2-0.9,0.3-1.4,0.3v1.4h-0.9v-1.4c-1.1-0.1-2-0.5-2.6-1.1
		c-0.6-0.7-1-1.6-1.1-2.7H33C33,38.2,33.2,38.8,33.7,39.2z M34,30.9c-0.4,0.3-0.6,0.8-0.6,1.4c0,0.3,0,0.5,0.1,0.7
		c0.1,0.2,0.2,0.4,0.4,0.5c0.2,0.1,0.4,0.3,0.6,0.4c0.2,0.1,0.5,0.2,0.8,0.3v-3.9C34.8,30.4,34.3,30.6,34,30.9z M37.1,39.9
		c0.3-0.1,0.5-0.2,0.7-0.4c0.2-0.2,0.3-0.4,0.4-0.6s0.2-0.6,0.2-0.9c0-0.3-0.1-0.6-0.2-0.8c-0.1-0.2-0.3-0.4-0.4-0.6
		c-0.2-0.2-0.4-0.3-0.7-0.4c-0.3-0.1-0.5-0.2-0.8-0.3V40C36.5,40,36.8,40,37.1,39.9z"/>
</g>
</svg>
